<svg width="564" height="631" viewBox="0 0 564 631" fill="none" xmlns="http://www.w3.org/2000/svg">
<path d="M91.7898 182.138L124.102 391.522C124.66 395.115 126.35 398.249 128.828 400.287C131.306 402.325 134.386 403.112 137.44 402.489L457.18 337.455C458.755 337.136 460.278 336.45 461.661 335.437C463.045 334.423 464.261 333.102 465.241 331.548C466.221 329.994 466.945 328.239 467.372 326.382C467.799 324.525 467.921 322.604 467.73 320.727L451.091 155.931C450.9 154.047 450.398 152.246 449.614 150.63C448.831 149.014 447.781 147.616 446.525 146.516C445.269 145.417 443.832 144.637 442.296 144.221C440.76 143.806 439.156 143.763 437.576 144.096L241.087 185.619C239.516 185.95 237.922 185.908 236.396 185.497C234.87 185.086 233.441 184.312 232.192 183.222L193.969 149.994C191.454 147.826 188.282 146.968 185.132 147.604L102.221 164.549C100.585 164.881 99.0064 165.61 97.583 166.688C96.1595 167.767 94.9211 169.174 93.9439 170.822C92.9666 172.47 92.2714 174.324 91.9009 176.27C91.5305 178.216 91.4926 180.213 91.7898 182.138Z" fill="#2B2B2B"/>
<g opacity="0.3">
<path d="M91.7898 182.136L124.102 391.52C124.66 395.113 126.35 398.247 128.828 400.285C131.306 402.323 134.386 403.11 137.44 402.487L457.18 337.453C458.755 337.134 460.278 336.448 461.661 335.435C463.045 334.421 464.261 333.1 465.241 331.546C466.221 329.992 466.945 328.237 467.372 326.38C467.799 324.524 467.921 322.602 467.73 320.725L451.091 155.929C450.9 154.045 450.398 152.244 449.614 150.628C448.831 149.012 447.781 147.614 446.525 146.515C445.269 145.415 443.832 144.635 442.296 144.219C440.76 143.804 439.156 143.761 437.576 144.094L241.087 185.617C239.516 185.948 237.922 185.906 236.396 185.495C234.87 185.084 233.441 184.31 232.192 183.22L193.969 149.992C191.454 147.824 188.282 146.966 185.132 147.602L102.221 164.547C100.585 164.879 99.0064 165.608 97.583 166.686C96.1595 167.765 94.9211 169.172 93.9439 170.82C92.9666 172.468 92.2714 174.322 91.9009 176.268C91.5305 178.214 91.4926 180.211 91.7898 182.136Z" fill="black"/>
</g>
<path d="M162.758 409.338C155.292 375.719 129.677 248.071 122.154 210.477C121.888 209.144 121.862 207.745 122.077 206.37C122.291 204.995 122.742 203.676 123.4 202.497C124.058 201.318 124.908 200.307 125.896 199.527C126.883 198.748 127.986 198.218 129.133 197.972L441.929 129.015C443.1 128.757 444.291 128.799 445.422 129.139C446.553 129.48 447.599 130.11 448.489 130.988C449.38 131.865 450.094 132.971 450.584 134.23C451.074 135.489 451.33 136.872 451.333 138.288L451.73 356.667C451.738 359.133 450.98 361.56 449.602 363.474C448.224 365.388 446.326 366.653 444.278 367.02L171.509 416.341C169.542 416.661 167.578 416.131 165.973 414.847C164.369 413.563 163.228 411.609 162.758 409.338Z" fill="#E0E0E0"/>
<path d="M145.32 428.722C137.999 395.92 111.863 265.598 104.455 228.465C104.242 227.234 104.244 225.951 104.461 224.696C104.679 223.441 105.107 222.24 105.719 221.168C106.33 220.096 107.113 219.175 108.019 218.463C108.924 217.75 109.932 217.262 110.982 217.027L425.228 152.088C426.301 151.884 427.387 151.949 428.416 152.28C429.445 152.611 430.393 153.201 431.201 154.011C432.009 154.821 432.659 155.833 433.108 156.983C433.556 158.133 433.795 159.395 433.808 160.688L434.216 375.9C434.21 378.186 433.499 380.43 432.221 382.202C430.943 383.974 429.187 385.149 427.291 385.501L153.524 435.019C151.709 435.336 149.891 434.878 148.39 433.726C146.889 432.574 145.802 430.801 145.32 428.722Z" fill="#F5F5F5"/>
<path d="M467.001 167.288L181.97 229.682L178.974 221.328C178.268 219.491 177.072 218.008 175.566 217.101C174.06 216.195 172.325 215.915 170.622 216.302L80.8011 234.939C79.7131 235.14 78.6608 235.609 77.7114 236.317C76.762 237.025 75.9363 237.955 75.287 239.049C74.6376 240.142 74.1789 241.375 73.94 242.669C73.7012 243.962 73.6874 245.288 73.8997 246.562L76.0246 257.971L76.8542 262.424L130.605 498.378C131.147 500.452 132.306 502.183 133.868 503.252C135.43 504.322 137.29 504.658 139.105 504.198L478.922 430.035C480.802 429.681 482.539 428.504 483.794 426.733C485.049 424.963 485.731 422.727 485.708 420.463L475.699 174.988C475.623 173.747 475.331 172.552 474.842 171.479C474.353 170.405 473.678 169.477 472.86 168.752C472.042 168.028 471.098 167.524 470.089 167.271C469.081 167.019 468.029 167.025 467.001 167.288Z" fill="#2B2B2B"/>
<path d="M284.496 386.186C259.666 382.901 244.1 361.45 243.921 361.192C243.817 361.054 243.746 360.884 243.716 360.699C243.686 360.513 243.698 360.32 243.749 360.136C243.816 359.629 256.97 310.59 295.451 302.347C332.715 294.341 353.004 335.479 353.212 335.811C353.335 336.091 353.361 336.423 353.284 336.736C353.229 337.152 342.036 376.66 301.468 385.402C295.831 386.641 290.115 386.904 284.496 386.186ZM245.756 360.097C248.691 363.912 270.012 389.904 301.198 383.183C321.748 378.859 334.319 366.249 341.224 356.504C345.487 350.604 348.893 343.904 351.286 336.707C349.023 332.37 329.596 297.356 295.712 304.635C260.732 312.121 247.392 354.491 245.756 360.097Z" fill="white"/>
<path d="M297.348 369.56C293.519 369.054 289.936 367.271 287 364.409C284.064 361.548 281.891 357.723 280.724 353.361C279.556 348.999 279.441 344.272 280.391 339.711C281.34 335.149 283.317 330.932 286.1 327.532C288.884 324.132 292.363 321.683 296.149 320.459C299.936 319.235 303.88 319.284 307.539 320.601C311.199 321.919 314.43 324.452 316.872 327.917C319.313 331.383 320.868 335.644 321.362 340.223C322.047 346.755 320.533 353.474 317.152 358.912C313.77 364.351 308.796 368.066 303.317 369.247C301.336 369.696 299.325 369.802 297.348 369.56ZM303.638 322.009C299.706 321.498 295.677 322.496 292.124 324.861C288.572 327.226 285.675 330.838 283.846 335.185C282.017 339.532 281.348 344.393 281.934 349.079C282.52 353.764 284.332 358.036 287.111 361.288C289.891 364.54 293.497 366.607 297.42 367.196C301.342 367.785 305.38 366.867 308.962 364.57C312.543 362.274 315.487 358.716 317.374 354.402C319.261 350.088 319.996 345.237 319.474 340.537C318.936 335.713 317.104 331.303 314.251 327.965C311.397 324.626 307.675 322.538 303.638 322.009Z" fill="white"/>
<path d="M258.87 402.331C258.685 402.313 258.513 402.225 258.379 402.078C258.188 401.885 258.073 401.604 258.059 401.299C258.045 400.993 258.132 400.687 258.303 400.448L336.678 289.399C336.849 289.16 337.089 289.008 337.344 288.976C337.6 288.944 337.851 289.034 338.042 289.227C338.14 289.319 338.221 289.435 338.28 289.569C338.338 289.702 338.373 289.849 338.381 290.002C338.39 290.154 338.373 290.309 338.331 290.456C338.289 290.604 338.223 290.741 338.137 290.859L259.742 401.906C259.633 402.056 259.497 402.173 259.345 402.247C259.193 402.321 259.03 402.35 258.87 402.331Z" fill="white"/>
<path d="M193.23 267.054C193.168 267.176 193.028 267.292 192.812 267.402C192.611 267.487 192.379 267.47 192.115 267.35C191.922 267.259 191.697 267.175 191.441 267.097C191.181 266.999 190.903 266.915 190.605 266.845C190.308 266.776 190.014 266.728 189.726 266.701C189.437 266.673 189.167 266.685 188.916 266.737C188.603 266.802 188.284 266.944 187.959 267.164C187.655 267.379 187.405 267.649 187.211 267.972C186.838 268.594 186.767 269.142 186.996 269.618C187.241 270.068 187.7 270.442 188.371 270.738C188.803 270.932 189.269 271.13 189.768 271.332C190.263 271.513 190.747 271.696 191.221 271.881C191.716 272.062 192.178 272.239 192.606 272.412C193.054 272.58 193.444 272.728 193.776 272.856C194.204 273.029 194.615 273.227 195.01 273.45C195.404 273.674 195.766 273.948 196.094 274.272C196.419 274.575 196.701 274.941 196.943 275.371C197.184 275.8 197.365 276.307 197.486 276.892C197.577 278.072 197.308 279.086 196.677 279.935C196.063 280.759 195.274 281.369 194.31 281.764C193.468 282.113 192.594 282.261 191.69 282.208C190.807 282.151 190.006 281.859 189.287 281.332C189.106 281.195 188.933 280.992 188.768 280.721C188.604 280.45 188.55 280.243 188.608 280.1C188.694 279.886 188.887 279.716 189.188 279.588C189.484 279.44 189.726 279.401 189.915 279.471C190.486 279.81 191.117 280.017 191.808 280.092C192.495 280.146 193.176 280.016 193.852 279.702C194.369 279.465 194.76 279.144 195.025 278.741C195.286 278.317 195.413 277.876 195.406 277.42C195.415 276.939 195.255 276.482 194.926 276.049C194.614 275.591 194.134 275.222 193.488 274.941C192.498 274.471 191.453 274.055 190.355 273.694C189.277 273.329 188.161 272.884 187.007 272.36C186.44 272.042 185.99 271.655 185.657 271.202C185.344 270.743 185.138 270.274 185.039 269.794C184.935 269.292 184.942 268.8 185.061 268.319C185.174 267.816 185.383 267.348 185.685 266.915C185.984 266.461 186.36 266.068 186.814 265.734C187.267 265.401 187.793 265.15 188.39 264.983C189.217 264.769 190.058 264.78 190.913 265.017C191.764 265.233 192.488 265.574 193.085 266.039C193.216 266.142 193.29 266.29 193.308 266.483C193.347 266.671 193.321 266.861 193.23 267.054ZM199.619 265.178C199.723 265.679 199.829 266.245 199.938 266.876C200.068 267.503 200.201 268.151 200.34 268.819C200.499 269.484 200.652 270.171 200.799 270.881C200.966 271.587 201.128 272.262 201.282 272.905C201.405 272.444 201.571 271.985 201.782 271.527C201.988 271.049 202.236 270.617 202.527 270.23C202.838 269.839 203.172 269.508 203.531 269.238C203.909 268.964 204.339 268.777 204.82 268.677C205.342 268.569 205.836 268.641 206.302 268.894C206.789 269.142 207.237 269.517 207.646 270.021C208.072 270.499 208.461 271.062 208.812 271.708C209.159 272.333 209.469 272.988 209.741 273.672C210.03 274.332 210.272 274.978 210.469 275.613C210.661 276.227 210.826 276.759 210.963 277.21C211.032 277.545 211.004 277.833 210.88 278.077C210.756 278.32 210.58 278.466 210.35 278.513C210.183 278.548 209.952 278.487 209.658 278.33C209.381 278.147 209.158 277.91 208.988 277.618C208.874 277.381 208.736 277.028 208.574 276.561C208.412 276.093 208.233 275.596 208.037 275.07C207.837 274.524 207.615 273.981 207.373 273.443C207.132 272.905 206.871 272.436 206.592 272.036C206.33 271.611 206.048 271.299 205.745 271.1C205.443 270.901 205.131 270.868 204.81 270.999C204.309 271.212 203.925 271.673 203.658 272.381C203.411 273.086 203.224 273.865 203.095 274.72C202.988 275.57 202.924 276.421 202.905 277.275C202.906 278.124 202.917 278.808 202.937 279.327C202.931 279.72 202.87 280.005 202.754 280.182C202.655 280.333 202.522 280.426 202.354 280.461C202.187 280.495 202.013 280.444 201.833 280.307C201.673 280.166 201.506 279.993 201.333 279.789C201.177 279.56 201.031 279.329 200.896 279.096C200.756 278.841 200.656 278.622 200.597 278.439C200.259 277.332 199.953 276.273 199.679 275.263C199.4 274.231 199.132 273.197 198.874 272.161C198.637 271.121 198.406 270.058 198.182 268.971C197.953 267.864 197.73 266.679 197.512 265.417C197.296 264.373 197.575 263.825 198.349 263.774C198.608 263.764 198.866 263.907 199.124 264.202C199.376 264.476 199.542 264.802 199.619 265.178ZM212.564 262.501C212.668 263.003 212.774 263.569 212.883 264.2C213.012 264.827 213.146 265.474 213.285 266.143C213.444 266.807 213.597 267.494 213.744 268.205C213.911 268.911 214.073 269.585 214.227 270.229C214.35 269.768 214.516 269.308 214.727 268.851C214.933 268.373 215.181 267.94 215.471 267.553C215.783 267.162 216.117 266.832 216.475 266.562C216.854 266.287 217.284 266.1 217.765 266.001C218.287 265.893 218.781 265.965 219.247 266.217C219.734 266.465 220.182 266.841 220.591 267.344C221.017 267.823 221.405 268.385 221.757 269.031C222.104 269.657 222.414 270.312 222.686 270.996C222.975 271.655 223.217 272.302 223.414 272.937C223.606 273.551 223.771 274.083 223.908 274.534C223.977 274.868 223.949 275.157 223.825 275.4C223.701 275.644 223.525 275.789 223.295 275.837C223.128 275.872 222.897 275.81 222.603 275.653C222.326 275.471 222.103 275.234 221.933 274.942C221.819 274.704 221.681 274.352 221.519 273.884C221.357 273.417 221.178 272.92 220.982 272.394C220.782 271.847 220.56 271.305 220.318 270.767C220.076 270.228 219.816 269.759 219.537 269.36C219.275 268.934 218.993 268.623 218.69 268.424C218.388 268.225 218.076 268.191 217.755 268.323C217.254 268.535 216.87 268.996 216.603 269.705C216.356 270.409 216.169 271.189 216.04 272.043C215.933 272.893 215.869 273.745 215.85 274.599C215.851 275.448 215.862 276.132 215.882 276.651C215.876 277.044 215.815 277.329 215.699 277.505C215.6 277.657 215.466 277.75 215.299 277.784C215.132 277.819 214.958 277.767 214.777 277.631C214.618 277.489 214.451 277.317 214.278 277.113C214.122 276.884 213.976 276.653 213.841 276.419C213.701 276.165 213.601 275.946 213.542 275.762C213.204 274.656 212.898 273.597 212.624 272.586C212.345 271.555 212.077 270.521 211.819 269.485C211.582 268.445 211.351 267.381 211.127 266.295C210.898 265.188 210.675 264.003 210.457 262.741C210.241 261.696 210.52 261.149 211.294 261.098C211.553 261.087 211.811 261.23 212.069 261.526C212.321 261.8 212.487 262.125 212.564 262.501ZM225.509 259.825C225.613 260.326 225.719 260.893 225.828 261.524C225.957 262.15 226.091 262.798 226.23 263.467C226.389 264.131 226.542 264.818 226.689 265.528C226.856 266.234 227.018 266.909 227.172 267.552C227.295 267.091 227.461 266.632 227.672 266.175C227.878 265.696 228.126 265.264 228.416 264.877C228.728 264.486 229.062 264.155 229.42 263.885C229.799 263.611 230.229 263.424 230.71 263.324C231.232 263.217 231.726 263.289 232.192 263.541C232.679 263.789 233.127 264.164 233.536 264.668C233.962 265.146 234.35 265.709 234.702 266.355C235.049 266.98 235.359 267.635 235.631 268.32C235.92 268.979 236.162 269.626 236.359 270.26C236.551 270.874 236.716 271.406 236.853 271.857C236.922 272.192 236.894 272.481 236.77 272.724C236.646 272.968 236.469 273.113 236.24 273.161C236.073 273.195 235.842 273.134 235.548 272.977C235.271 272.794 235.048 272.557 234.878 272.266C234.764 272.028 234.626 271.675 234.463 271.208C234.301 270.74 234.123 270.243 233.927 269.718C233.726 269.171 233.505 268.628 233.263 268.09C233.021 267.552 232.761 267.083 232.482 266.683C232.22 266.258 231.938 265.946 231.635 265.747C231.333 265.548 231.021 265.515 230.7 265.647C230.199 265.859 229.815 266.32 229.548 267.028C229.301 267.733 229.114 268.512 228.985 269.367C228.878 270.217 228.814 271.069 228.795 271.922C228.796 272.772 228.807 273.456 228.827 273.974C228.821 274.368 228.76 274.652 228.644 274.829C228.545 274.98 228.411 275.073 228.244 275.108C228.077 275.142 227.903 275.091 227.722 274.954C227.563 274.813 227.396 274.64 227.223 274.437C227.067 274.207 226.921 273.976 226.786 273.743C226.646 273.488 226.546 273.269 226.487 273.086C226.149 271.979 225.843 270.921 225.568 269.91C225.29 268.878 225.022 267.844 224.764 266.808C224.527 265.768 224.296 264.705 224.072 263.619C223.843 262.511 223.62 261.327 223.402 260.065C223.186 259.02 223.465 258.472 224.239 258.421C224.498 258.411 224.756 258.554 225.014 258.849C225.266 259.124 225.432 259.449 225.509 259.825ZM241.472 270.478C241.732 271.208 241.507 271.701 240.797 271.957C240.43 272.076 240.095 272.037 239.792 271.838C239.511 271.635 239.302 271.362 239.166 271.02C239.025 270.657 238.97 270.287 239.001 269.91C239.053 269.529 239.242 269.283 239.568 269.172C239.973 269.023 240.36 269.106 240.73 269.422C241.096 269.717 241.343 270.068 241.472 270.478ZM247.715 269.187C247.975 269.917 247.75 270.41 247.04 270.666C246.673 270.786 246.338 270.746 246.035 270.547C245.754 270.344 245.545 270.071 245.409 269.729C245.268 269.366 245.213 268.996 245.244 268.619C245.296 268.238 245.485 267.992 245.811 267.881C246.216 267.732 246.603 267.816 246.973 268.131C247.339 268.426 247.586 268.778 247.715 269.187ZM253.958 267.896C254.217 268.627 253.993 269.12 253.283 269.375C252.916 269.495 252.581 269.455 252.278 269.256C251.996 269.053 251.788 268.78 251.652 268.438C251.511 268.075 251.456 267.705 251.487 267.329C251.539 266.947 251.728 266.701 252.054 266.591C252.459 266.441 252.846 266.525 253.216 266.84C253.582 267.135 253.829 267.487 253.958 267.896ZM260.913 264.203C260.951 264.283 260.987 264.406 261.022 264.573C261.052 264.719 261.053 264.882 261.025 265.062C260.993 265.222 260.927 265.377 260.827 265.528C260.744 265.654 260.599 265.739 260.39 265.782C259.87 265.585 259.403 265.278 258.99 264.862C258.694 264.27 258.388 263.582 258.073 262.797C257.78 262.008 257.5 261.184 257.235 260.324C256.966 259.443 256.715 258.547 256.483 257.636C256.273 256.721 256.089 255.833 255.933 254.973C255.903 254.826 255.874 254.636 255.847 254.402C255.842 254.164 255.859 253.931 255.899 253.705C255.935 253.458 256.001 253.248 256.096 253.076C256.187 252.883 256.347 252.763 256.577 252.715C256.849 252.659 257.085 252.697 257.287 252.83C257.489 252.963 257.628 253.217 257.706 253.593C257.858 254.433 258.044 255.331 258.263 256.288C258.5 257.219 258.759 258.157 259.041 259.101C259.323 260.044 259.622 260.963 259.937 261.856C260.269 262.724 260.595 263.507 260.913 264.203ZM262.717 249.387C262.561 249.158 262.365 248.948 262.129 248.757C261.894 248.566 261.685 248.294 261.503 247.939C261.257 247.489 261.148 247.065 261.174 246.667C261.222 246.265 261.377 245.961 261.639 245.754C261.885 245.573 262.137 245.477 262.397 245.467C262.656 245.457 262.907 245.514 263.151 245.638C263.39 245.741 263.611 245.913 263.813 246.154C264.011 246.375 264.174 246.635 264.302 246.936C264.489 247.42 264.622 248.013 264.702 248.715C264.803 249.413 264.843 250.135 264.823 250.88C264.798 251.604 264.709 252.33 264.555 253.059C264.417 253.763 264.218 254.381 263.958 254.914C263.851 255.133 263.718 255.28 263.559 255.356C263.396 255.412 263.246 255.421 263.107 255.384C262.965 255.327 262.847 255.231 262.754 255.098C262.678 254.939 262.664 254.768 262.713 254.584C262.836 254.123 262.933 253.699 263.006 253.314C263.079 252.929 263.12 252.55 263.131 252.177C263.162 251.801 263.161 251.43 263.13 251.066C263.094 250.682 263.033 250.281 262.946 249.863C262.912 249.696 262.835 249.537 262.717 249.387ZM272.061 254.121C272.151 254.451 272.269 254.863 272.414 255.355C272.576 255.823 272.745 256.322 272.92 256.852C273.091 257.361 273.261 257.871 273.432 258.38C273.623 258.885 273.796 259.35 273.949 259.776C274.084 259.269 274.249 258.647 274.445 257.909C274.642 257.171 274.855 256.463 275.084 255.784C275.331 255.079 275.599 254.479 275.889 253.984C276.195 253.463 276.505 253.17 276.818 253.105C277.152 253.036 277.49 253.141 277.83 253.419C278.188 253.672 278.518 254.006 278.822 254.423C279.126 254.839 279.405 255.293 279.66 255.785C279.935 256.273 280.165 256.705 280.352 257.08C280.379 256.791 280.421 256.467 280.477 256.106C280.55 255.721 280.623 255.336 280.696 254.95C280.785 254.54 280.887 254.137 281.002 253.743C281.137 253.345 281.292 252.986 281.466 252.667C281.677 252.318 281.926 252.049 282.213 251.859C282.497 251.648 282.711 251.527 282.857 251.497C283.046 251.458 283.278 251.476 283.554 251.549C283.848 251.597 284.149 251.687 284.46 251.819C284.77 251.951 285.069 252.129 285.355 252.353C285.657 252.552 285.91 252.772 286.112 253.014C286.521 253.517 286.878 254.086 287.184 254.72C287.51 255.35 287.777 255.959 287.986 256.547C288.195 257.136 288.36 257.668 288.48 258.144C288.617 258.595 288.715 258.913 288.775 259.096C288.831 259.368 288.843 259.583 288.81 259.743C288.773 259.881 288.68 260.009 288.53 260.127C288.322 260.279 288.132 260.362 287.961 260.376C287.785 260.368 287.634 260.323 287.508 260.241C287.382 260.158 287.275 260.06 287.186 259.948C287.093 259.814 287.026 259.698 286.983 259.598C286.821 259.13 286.646 258.654 286.459 258.17C286.293 257.682 286.12 257.216 285.942 256.774C285.759 256.311 285.564 255.894 285.356 255.522C285.165 255.126 284.975 254.784 284.785 254.497C284.726 254.422 284.631 254.333 284.501 254.229C284.387 254.1 284.254 253.986 284.103 253.886C283.973 253.783 283.847 253.7 283.725 253.638C283.603 253.576 283.519 253.539 283.473 253.526C283.264 253.57 283.086 253.813 282.938 254.258C282.786 254.681 282.662 255.186 282.565 255.773C282.469 256.359 282.389 256.975 282.326 257.619C282.28 258.239 282.258 258.766 282.261 259.201C282.373 259.745 282.353 260.174 282.2 260.488C282.043 260.782 281.85 260.953 281.62 261C281.39 261.048 281.122 261.016 280.816 260.905C280.527 260.769 280.316 260.595 280.185 260.382C279.991 260.074 279.777 259.726 279.544 259.338C279.312 258.951 279.067 258.555 278.809 258.151C278.572 257.742 278.327 257.346 278.073 256.963C277.84 256.575 277.616 256.23 277.401 255.926C277.191 256.383 276.989 256.882 276.796 257.423C276.624 257.96 276.453 258.507 276.286 259.064C276.139 259.618 275.991 260.171 275.844 260.724C275.714 261.252 275.583 261.726 275.452 262.145C275.353 262.405 275.24 262.646 275.112 262.869C274.979 263.071 274.798 263.195 274.568 263.243C274.401 263.277 274.208 263.241 273.99 263.134C273.767 263.005 273.549 262.843 273.334 262.648C273.119 262.453 272.909 262.224 272.702 261.962C272.516 261.695 272.362 261.422 272.239 261.143C271.886 260.279 271.536 259.327 271.191 258.288C270.862 257.223 270.539 256.19 270.223 255.188C270.129 254.837 270.104 254.504 270.148 254.19C270.208 253.851 270.395 253.595 270.707 253.421C271.05 253.285 271.332 253.281 271.555 253.409C271.777 253.537 271.946 253.775 272.061 254.121ZM301.297 248.959C301.289 249.549 301.293 250.202 301.31 250.917C301.323 251.611 301.363 252.278 301.43 252.918C301.517 253.554 301.634 254.118 301.779 254.61C301.946 255.099 302.155 255.426 302.407 255.592C302.775 255.581 303.152 255.35 303.539 254.9C303.92 254.429 304.272 253.866 304.595 253.211C304.917 252.557 305.188 251.869 305.41 251.148C305.627 250.406 305.756 249.769 305.799 249.237C305.831 248.969 305.85 248.693 305.856 248.408C305.863 248.124 305.836 247.835 305.775 247.543C305.741 247.376 305.813 247.198 305.991 247.008C306.187 246.793 306.355 246.661 306.497 246.609C306.597 246.567 306.717 246.564 306.855 246.601C307.014 246.633 307.159 246.701 307.289 246.805C307.436 246.884 307.569 246.998 307.687 247.148C307.822 247.272 307.906 247.418 307.941 247.585C308.112 248.203 308.317 248.88 308.556 249.615C308.795 250.35 309.045 251.082 309.305 251.813C309.586 252.539 309.862 253.244 310.135 253.929C310.407 254.613 310.664 255.224 310.906 255.762C311.016 255.979 311.007 256.253 310.88 256.585C310.752 256.916 310.58 257.137 310.363 257.247C310.184 257.328 309.981 257.348 309.755 257.307C309.549 257.263 309.369 257.126 309.212 256.897C309.047 256.626 308.87 256.292 308.679 255.896C308.504 255.475 308.328 255.043 308.149 254.6C307.987 254.133 307.832 253.697 307.683 253.292C307.529 252.866 307.412 252.509 307.331 252.221C307.134 252.85 306.877 253.502 306.559 254.178C306.258 254.828 305.906 255.445 305.504 256.03C305.119 256.589 304.682 257.06 304.195 257.444C303.725 257.803 303.201 258.009 302.624 258.063C301.767 258.131 300.968 257.48 300.227 256.108C299.938 255.557 299.721 254.927 299.574 254.217C299.448 253.502 299.356 252.791 299.297 252.085C299.254 251.353 299.231 250.661 299.227 250.008C299.243 249.351 299.263 248.813 299.285 248.395C299.293 248.219 299.346 248.055 299.445 247.904C299.54 247.732 299.676 247.649 299.852 247.657C300.178 247.655 300.499 247.784 300.814 248.046C301.151 248.303 301.312 248.607 301.297 248.959ZM313.241 245.379C313.368 245.679 313.504 246.021 313.649 246.405C313.81 246.764 313.976 247.144 314.146 247.544C314.312 247.924 314.469 248.316 314.618 248.721C314.767 249.126 314.901 249.512 315.021 249.879C315.159 249.284 315.312 248.654 315.479 247.987C315.646 247.321 315.845 246.703 316.076 246.132C316.323 245.536 316.6 245.033 316.907 244.621C317.235 244.204 317.629 243.949 318.088 243.853C318.778 243.711 319.404 243.843 319.967 244.249C320.552 244.651 321.078 245.196 321.547 245.883C322.032 246.545 322.453 247.264 322.81 248.04C323.166 248.816 323.472 249.504 323.727 250.105C323.969 250.643 323.805 251.113 323.234 251.514C322.972 251.721 322.757 251.787 322.589 251.713C322.421 251.639 322.316 251.552 322.273 251.452C322.117 251.222 321.891 250.812 321.594 250.22C321.318 249.623 321.009 249.023 320.666 248.418C320.344 247.809 320.008 247.291 319.658 246.862C319.308 246.433 318.981 246.272 318.676 246.379C318.304 246.477 318.028 246.829 317.848 247.432C317.688 247.923 317.528 248.468 317.369 249.067C317.226 249.641 317.088 250.236 316.954 250.852C316.815 251.447 316.679 252.053 316.545 252.669C316.428 253.259 316.312 253.806 316.198 254.309C316.082 254.485 315.916 254.629 315.699 254.739C315.499 254.824 315.275 254.848 315.028 254.812C314.806 254.793 314.617 254.723 314.462 254.602C314.306 254.482 314.213 254.349 314.183 254.203C313.658 252.612 313.153 251.17 312.667 249.876C312.203 248.578 311.669 247.261 311.067 245.926C310.821 245.476 310.712 245.106 310.739 244.817C310.783 244.503 311.073 244.324 311.608 244.278C312.365 244.253 312.909 244.619 313.241 245.379ZM328.666 236.406C328.525 236.042 328.475 235.693 328.515 235.358C328.575 235.019 328.779 234.792 329.125 234.677C329.43 234.57 329.719 234.598 329.992 234.759C330.286 234.916 330.499 235.155 330.631 235.477C331.545 237.793 332.426 240.105 333.274 242.413C334.138 244.696 334.952 246.946 335.715 249.163C335.924 249.751 335.968 250.178 335.849 250.442C335.725 250.685 335.559 250.883 335.35 251.035C335.121 251.191 334.881 251.241 334.63 251.184C334.399 251.123 334.224 250.963 334.106 250.704L334.035 250.523L333.917 250.58C333.279 250.973 332.588 251.269 331.845 251.466C331.097 251.642 330.357 251.697 329.624 251.631C328.892 251.564 328.206 251.358 327.568 251.01C326.947 250.638 326.445 250.11 326.064 249.426C325.23 247.921 325.241 246.394 326.097 244.844C326.466 244.202 326.959 243.588 327.579 243.002C328.199 242.417 328.984 241.895 329.935 241.437L330.473 241.195L328.666 236.406ZM327.814 248.247C328.043 248.723 328.353 249.062 328.743 249.264C329.133 249.467 329.569 249.573 330.05 249.582C330.527 249.571 331.02 249.48 331.53 249.309C332.039 249.138 332.527 248.918 332.994 248.647L333.257 248.494L331.239 243.161L330.645 243.447C330.232 243.663 329.803 243.959 329.357 244.334C328.929 244.684 328.563 245.075 328.261 245.508C327.958 245.941 327.748 246.398 327.629 246.88C327.532 247.358 327.594 247.814 327.814 248.247ZM343.916 242.141C343.201 242.79 342.401 243.347 341.517 243.813C340.629 244.258 339.642 244.593 338.555 244.817C338.748 245.54 339.078 246.082 339.545 246.443C340.007 246.783 340.529 246.936 341.111 246.903C341.454 246.876 341.786 246.796 342.107 246.665C342.449 246.529 342.754 246.368 343.02 246.182C343.303 245.971 343.553 245.756 343.769 245.537C343.985 245.318 344.17 245.105 344.323 244.899C344.477 244.693 344.654 244.548 344.854 244.463C345.05 244.357 345.205 244.314 345.318 244.334C345.632 244.378 345.801 244.67 345.825 245.21C345.629 245.947 345.268 246.621 344.74 247.231C344.209 247.82 343.569 248.258 342.822 248.543C342.179 248.806 341.484 248.918 340.734 248.876C339.985 248.835 339.272 248.601 338.596 248.175C338.016 247.794 337.534 247.305 337.149 246.709C336.765 246.114 336.47 245.477 336.265 244.801C336.068 244.166 335.993 243.539 336.039 242.92C336.106 242.296 336.282 241.726 336.568 241.209C336.849 240.672 337.241 240.199 337.745 239.789C338.248 239.38 338.872 239.077 339.615 238.88C340.501 238.631 341.35 238.63 342.163 238.876C342.976 239.122 343.603 239.569 344.042 240.219C344.291 240.582 344.404 240.918 344.381 241.228C344.379 241.533 344.224 241.837 343.916 242.141ZM339.872 240.755C339.672 240.84 339.457 240.96 339.228 241.117C339.02 241.269 338.829 241.45 338.654 241.66C338.496 241.845 338.356 242.059 338.232 242.303C338.124 242.521 338.086 242.758 338.117 243.013C338.472 242.939 338.852 242.828 339.257 242.679C339.683 242.526 340.085 242.366 340.465 242.201C340.861 242.01 341.214 241.817 341.522 241.623C341.851 241.424 342.116 241.228 342.315 241.034C342.066 240.671 341.703 240.496 341.226 240.507C340.766 240.494 340.314 240.576 339.872 240.755ZM355.976 236.053C355.644 236.339 355.292 236.641 354.922 236.957C354.572 237.269 354.221 237.625 353.868 238.024C353.531 238.399 353.218 238.834 352.929 239.33C352.656 239.8 352.431 240.347 352.255 240.972C352.002 241.852 351.888 242.725 351.915 243.591C351.937 244.436 352.009 245.26 352.131 246.062C352.209 246.439 352.195 246.844 352.089 247.28C352 247.691 351.798 247.929 351.485 247.993C351.088 248.075 350.723 247.944 350.39 247.599C350.074 247.228 349.835 246.864 349.674 246.505C349.012 245.095 348.417 243.693 347.89 242.299C347.357 240.884 346.859 239.474 346.394 238.067C346.333 237.774 346.378 237.569 346.528 237.451C346.698 237.328 346.901 237.254 347.135 237.227C347.39 237.196 347.643 237.209 347.895 237.266C348.146 237.323 348.316 237.462 348.406 237.683C348.649 238.439 348.922 239.232 349.224 240.063C349.523 240.873 349.797 241.567 350.048 242.147C349.984 241.42 350.072 240.683 350.309 239.937C350.547 239.19 350.882 238.489 351.312 237.834C351.764 237.174 352.296 236.585 352.908 236.066C353.54 235.543 354.209 235.144 354.914 234.867C355.219 234.761 355.48 234.707 355.698 234.705C355.915 234.704 356.077 234.747 356.182 234.834C356.287 234.921 356.332 235.086 356.317 235.329C356.323 235.567 356.209 235.808 355.976 236.053ZM365.646 236.929C365.517 237.043 365.346 237.111 365.133 237.133C364.915 237.135 364.71 237.035 364.516 236.836C364.091 236.466 363.638 236.331 363.158 236.431C362.719 236.521 362.344 236.708 362.032 236.99C361.736 237.247 361.487 237.571 361.285 237.961C361.099 238.327 360.963 238.725 360.878 239.156C360.793 239.588 360.76 240.009 360.78 240.419C360.827 241.171 361.079 241.762 361.538 242.19C361.997 242.618 362.602 242.754 363.354 242.598C363.965 242.494 364.62 242.239 365.32 241.833C366.037 241.401 366.686 240.907 367.269 240.351C367.535 240.166 367.792 240.036 368.038 239.964C368.284 239.891 368.519 239.973 368.743 240.21C369.021 240.501 369.04 240.857 368.8 241.277C368.555 241.676 368.2 242.065 367.734 242.444C367.272 242.845 366.773 243.221 366.235 243.571C365.714 243.897 365.172 244.172 364.609 244.398C364.041 244.602 363.456 244.723 362.854 244.761C362.273 244.794 361.699 244.705 361.133 244.496C360.226 244.117 359.586 243.443 359.212 242.475C358.837 241.506 358.696 240.457 358.79 239.327C358.833 238.904 358.928 238.47 359.076 238.026C359.22 237.561 359.413 237.128 359.658 236.729C359.923 236.326 360.23 235.968 360.579 235.656C360.925 235.324 361.329 235.066 361.792 234.883C362.539 234.598 363.298 234.528 364.069 234.674C364.835 234.798 365.411 235.213 365.796 235.918C365.873 236.076 365.909 236.254 365.907 236.45C365.899 236.626 365.812 236.786 365.646 236.929ZM376.404 231.699C377.078 231.799 377.671 232.035 378.184 232.409C378.718 232.778 379.16 233.231 379.511 233.768C379.857 234.285 380.104 234.844 380.25 235.445C380.417 236.043 380.471 236.62 380.412 237.176C380.303 237.809 380.129 238.444 379.891 239.081C379.652 239.719 379.348 240.305 378.98 240.838C378.611 241.372 378.162 241.835 377.633 242.228C377.104 242.62 376.485 242.89 375.774 243.037C374.918 243.214 374.156 243.164 373.489 242.888C372.822 242.612 372.256 242.196 371.793 241.638C371.329 241.08 370.962 240.415 370.694 239.643C370.446 238.867 370.303 238.068 370.264 237.249C370.227 236.646 370.246 236.054 370.322 235.472C370.414 234.865 370.574 234.32 370.801 233.837C371.023 233.334 371.305 232.905 371.646 232.552C372.007 232.194 372.449 231.961 372.972 231.853C373.264 231.792 373.643 231.779 374.107 231.814C374.568 231.828 375.007 231.9 375.427 232.031C375.646 231.724 375.972 231.613 376.404 231.699ZM375.686 234.232C375.426 234.134 375.115 234.002 374.754 233.837C374.41 233.647 374.123 233.575 373.893 233.623C373.642 233.675 373.416 233.841 373.212 234.123C373.03 234.4 372.877 234.715 372.754 235.067C372.647 235.394 372.564 235.727 372.503 236.067C372.443 236.406 372.411 236.674 372.408 236.871C372.41 237.197 372.446 237.582 372.516 238.025C372.586 238.468 372.708 238.9 372.882 239.321C373.052 239.722 373.289 240.076 373.592 240.384C373.912 240.666 374.327 240.831 374.838 240.878C375.147 240.901 375.492 240.83 375.872 240.664C376.247 240.477 376.597 240.22 376.921 239.891C377.266 239.559 377.563 239.149 377.811 238.662C378.079 238.171 378.252 237.634 378.327 237.052C378.411 236.403 378.281 235.776 377.939 235.172C377.612 234.542 377.116 234.144 376.45 233.976C376.325 234.111 376.19 234.194 376.043 234.224C375.897 234.254 375.778 234.257 375.686 234.232ZM392.336 227.947C392.118 228.58 391.898 229.203 391.676 229.815C391.454 230.428 391.218 231.13 390.968 231.922C390.735 232.689 390.462 233.584 390.151 234.607C389.839 235.63 389.486 236.869 389.089 238.323C388.987 238.671 388.872 238.956 388.743 239.179C388.615 239.402 388.436 239.537 388.206 239.584C387.893 239.649 387.625 239.617 387.402 239.489C387.196 239.336 387.009 239.167 386.84 238.984C385.913 237.978 384.971 236.844 384.013 235.582C383.055 234.321 382.229 233.065 381.535 231.814C381.471 231.718 381.448 231.603 381.463 231.469C381.496 231.31 381.56 231.199 381.656 231.135C381.843 230.988 382.113 230.921 382.464 230.936C382.736 230.988 383.026 231.124 383.333 231.344C383.64 231.564 383.897 231.805 384.103 232.067C384.289 232.334 384.504 232.638 384.749 232.979C384.994 233.321 385.256 233.691 385.535 234.091C385.83 234.466 386.125 234.841 386.421 235.215C386.716 235.59 387.003 235.923 387.281 236.214C387.506 235.514 387.744 234.767 387.994 233.975C388.261 233.157 388.527 232.34 388.794 231.522C389.056 230.684 389.325 229.877 389.6 229.101C389.897 228.321 390.197 227.616 390.503 226.986C390.577 226.818 390.706 226.705 390.89 226.645C391.074 226.585 391.298 226.615 391.562 226.735C392.166 227.024 392.424 227.428 392.336 227.947ZM402.857 229.954C402.142 230.603 401.342 231.161 400.458 231.627C399.57 232.072 398.583 232.407 397.496 232.631C397.689 233.354 398.019 233.896 398.486 234.256C398.948 234.597 399.47 234.75 400.052 234.717C400.394 234.69 400.727 234.61 401.048 234.478C401.39 234.342 401.694 234.181 401.961 233.995C402.244 233.784 402.494 233.569 402.71 233.35C402.926 233.132 403.111 232.919 403.264 232.713C403.418 232.507 403.595 232.362 403.795 232.277C403.991 232.171 404.145 232.128 404.259 232.148C404.573 232.192 404.742 232.484 404.766 233.023C404.57 233.761 404.209 234.435 403.681 235.045C403.149 235.634 402.51 236.071 401.763 236.356C401.12 236.62 400.424 236.731 399.675 236.69C398.926 236.649 398.213 236.415 397.537 235.989C396.957 235.607 396.475 235.119 396.09 234.523C395.706 233.927 395.411 233.291 395.206 232.615C395.009 231.98 394.934 231.353 394.98 230.733C395.047 230.11 395.223 229.539 395.509 229.023C395.79 228.486 396.182 228.012 396.685 227.603C397.189 227.194 397.813 226.891 398.556 226.694C399.441 226.445 400.291 226.444 401.104 226.69C401.917 226.935 402.544 227.383 402.983 228.033C403.232 228.395 403.345 228.732 403.322 229.041C403.32 229.347 403.165 229.651 402.857 229.954ZM398.813 228.568C398.613 228.653 398.398 228.774 398.169 228.93C397.961 229.082 397.769 229.263 397.595 229.474C397.437 229.659 397.296 229.873 397.172 230.117C397.065 230.335 397.027 230.572 397.058 230.827C397.413 230.753 397.793 230.642 398.198 230.493C398.624 230.339 399.026 230.18 399.406 230.014C399.802 229.823 400.155 229.631 400.463 229.436C400.792 229.238 401.057 229.041 401.256 228.848C401.007 228.485 400.644 228.31 400.167 228.321C399.707 228.307 399.255 228.39 398.813 228.568ZM414.917 223.866C414.584 224.153 414.233 224.455 413.863 224.771C413.513 225.083 413.162 225.438 412.809 225.838C412.472 226.213 412.159 226.648 411.87 227.143C411.597 227.614 411.372 228.161 411.196 228.786C410.943 229.666 410.829 230.539 410.855 231.405C410.878 232.25 410.95 233.074 411.072 233.876C411.15 234.252 411.136 234.658 411.03 235.094C410.941 235.505 410.739 235.742 410.426 235.807C410.029 235.889 409.664 235.758 409.331 235.413C409.015 235.042 408.776 234.678 408.615 234.319C407.953 232.909 407.358 231.507 406.831 230.113C406.298 228.698 405.8 227.287 405.335 225.88C405.274 225.588 405.319 225.383 405.469 225.264C405.639 225.142 405.842 225.067 406.076 225.041C406.331 225.01 406.584 225.023 406.836 225.08C407.087 225.137 407.257 225.276 407.347 225.497C407.59 226.253 407.863 227.046 408.165 227.877C408.463 228.686 408.738 229.381 408.988 229.961C408.925 229.233 409.012 228.497 409.25 227.75C409.488 227.004 409.822 226.303 410.253 225.648C410.705 224.988 411.237 224.399 411.848 223.88C412.481 223.357 413.15 222.957 413.855 222.681C414.16 222.574 414.421 222.52 414.639 222.519C414.856 222.517 415.018 222.56 415.123 222.648C415.228 222.735 415.273 222.9 415.258 223.142C415.263 223.381 415.15 223.622 414.917 223.866Z" fill="white"/>
</svg>
